# xmcd CD database file
#
# Track frame offsets:
#	150
#	5140
#	18048
#	27702
#	39030
#	48501
#	57729
#	74868
#	86262
#	96883
#	108011
#	129902
#	143665
#	158316
#	173276
#	181808
#	191691
#	204228
#	215363
#	230815
#	243769
#	258087
#	264881
#
# Disc length: 3661 seconds
#
# Revision: 0
# Processed by: cddbd v1.5.1PL0 Copyright (c) Steve Scherf et al.
# Submitted via: CDex 1.51
#
DISCID=240e4b17
DTITLE=Musica Historica - Kobzos Kiss Tamás - Jelentem versben mesémet - Balassi Bálint énekei
DYEAR=2004
DGENRE=Vers-zene
TTITLE0=Polnischer Tantz
TTITLE1=Nyolc ifiú legén minap úton menvén
TTITLE2=Széllyel tündökleni neml átd-é ez földet
TTITLE3=Jelentem versben mesémet
TTITLE4=Siralmas nékem idegen földen
TTITLE5=Mindennap, jó reggel
TTITLE6=Most adá virágom nékem bokrétáját
TTITLE7=Eredj, édes gyûrõm
TTITLE8=Reménségem nincs már nékem
TTITLE9=Bákói hajdútáncok
TTITLE10=Ez a világ sem kell már nékem
TTITLE11=Ha ki akar látni két eleven kutat
TTITLE12=Mire most. barátom, azon kérdezkedel
TTITLE13=Hallám egy ifjúnak minap éneklését
TTITLE14=Már csak éjjel hadna énnekem nyugodnom
TTITLE15=Szabadsága van már én szegény fejemnek
TTITLE16=Régi szerelem nagy tüze
TTITLE17=Idõvel paloták, házak, erõs várak
TTITLE18=Wo soll ich mich hinkehren-  Padoana - Elburato
TTITLE19=Ó, nagy kerek ég, dicsõség, fényesség
TTITLE20=Az Zsuzsánna egy szép német leán
TTITLE21=Kegyelmes szerelem, ki ily jót tél velem
TTITLE22=Szít Zsuzsanna tüzet szívembõl magára
EXTD=YEAR: 2004
EXTT0=
EXTT1=
EXTT2=
EXTT3=
EXTT4=
EXTT5=
EXTT6=
EXTT7=
EXTT8=
EXTT9=
EXTT10=
EXTT11=
EXTT12=
EXTT13=
EXTT14=
EXTT15=
EXTT16=
EXTT17=
EXTT18=
EXTT19=
EXTT20=
EXTT21=
EXTT22=
PLAYORDER=
